<svg width="138" height="179" viewBox="0 0 138 179" fill="none" xmlns="http://www.w3.org/2000/svg">
<path d="M80.5835 24.5942C86.6598 24.5943 92.0124 27.6912 95.1495 32.3926C98.3744 37.2256 101.072 42.7543 104.855 47.1648C111.335 54.7216 114.711 64.9442 113.158 75.728L111.222 89.1616C110.798 92.1053 110.74 95.0904 111.05 98.0483L112.239 109.385C112.363 110.566 111.437 111.594 110.25 111.594H56.2877C36.8117 111.594 20.8668 96.105 20.3023 76.6372L20.1578 71.6372C19.8665 61.5896 23.715 52.4062 30.14 45.6965C34.1295 41.5304 37.1169 36.2092 40.5804 31.5966C43.7731 27.3447 48.8571 24.5942 54.5835 24.5942H80.5835Z" fill="#381C12"/>
<path d="M84.0835 66.594H85.8589C88.1811 66.594 90.3447 65.834 92.0981 64.5374C92.5071 65.7051 92.7987 66.9581 92.9536 68.2971C93.1287 69.8112 93.3156 71.3354 93.8921 72.7463C94.5096 74.2574 95.0835 75.662 95.0835 77.594C95.0835 82.6015 93.8312 87.2655 91.6157 91.176C89.6747 94.6021 88.119 98.4336 85.8101 101.623C83.6299 104.635 80.0855 106.594 76.0835 106.594C75.1301 106.594 74.2032 106.481 73.314 106.271L77.9995 128.046C79.0715 133.028 75.275 137.729 70.1792 137.729H66.5415C57.7049 137.729 50.5415 130.565 50.5415 121.729V86.4504C49.6488 84.7801 47.9951 83.594 46.0835 83.594C43.8744 83.594 42.0835 81.8031 42.0835 79.594V76.6565C42.0837 72.5548 47.521 71.111 49.5562 74.6721C50.1698 75.7458 51.5772 75.871 52.1245 74.762C52.7386 73.5176 53.3154 71.9447 53.9507 70.2141C54.374 69.0609 54.8236 67.8376 55.3267 66.594H74.3276C78.3832 66.5939 82.0758 64.2582 83.814 60.594L84.0835 60.0266V66.594Z" fill="#FFCEBC"/>
<path d="M24.6431 119.534H111.687C116.456 119.534 120.561 121.561 121.494 124.377L137.136 171.585C138.37 175.31 133.638 178.783 127.329 178.783H10.8372C4.62074 178.783 -0.0892967 175.405 0.988702 171.719L14.7946 124.511C15.6363 121.633 19.7893 119.534 24.6431 119.534Z" fill="#9DDEF4"/>
</svg>
